<?xml version="1.0" encoding="UTF-8"?>
<!DOCTYPE svg PUBLIC "-//W3C//DTD SVG 1.1//EN" "http://www.w3.org/Graphics/SVG/1.1/DTD/svg11.dtd">
<!-- Creator: CorelDRAW -->
<svg xmlns="http://www.w3.org/2000/svg" xml:space="preserve" width="21.6667in" height="21.6667in" version="1.1" style="shape-rendering:geometricPrecision; text-rendering:geometricPrecision; image-rendering:optimizeQuality; fill-rule:evenodd; clip-rule:evenodd"
viewBox="0 0 21666.66 21666.66"
 xmlns:xlink="http://www.w3.org/1999/xlink"
 xmlns:xodm="http://www.corel.com/coreldraw/odm/2003">
 <defs>
  <style type="text/css">
   <![CDATA[
    .fil0 {fill:#3A3A3A;fill-rule:nonzero}
    .fil1 {fill:url(#id0)}
   ]]>
  </style>
  <linearGradient id="id0" gradientUnits="userSpaceOnUse" x1="4653.19" y1="11893.43" x2="7914.63" y2="7921.57">
   <stop offset="0" style="stop-opacity:1; stop-color:#EF0909"/>
   <stop offset="1" style="stop-opacity:1; stop-color:yellow"/>
  </linearGradient>
 </defs>
 <g id="Layer_x0020_1">
  <metadata id="CorelCorpID_0Corel-Layer"/>
  <g id="_1895939743600">
   <polygon class="fil0" points="8631.18,8835.3 8707.59,8835.3 8707.59,8122.36 8991.76,8122.36 8991.76,8052.89 8347,8052.89 8347,8122.36 8631.18,8122.36 "/>
   <polygon id="_1" class="fil0" points="9616.1,8052.89 9616.1,8401.39 9115.82,8401.39 9115.82,8052.89 9039.41,8052.89 9039.41,8835.3 9115.82,8835.3 9115.82,8472 9616.1,8472 9616.1,8835.3 9692.52,8835.3 9692.52,8052.89 "/>
   <polygon id="_2" class="fil0" points="10352.68,8122.36 10352.68,8052.89 9780.76,8052.89 9780.76,8835.3 10352.68,8835.3 10352.68,8765.83 9858.37,8765.83 9858.37,8472 10307.31,8472 10307.31,8401.39 9858.37,8401.39 9858.37,8122.36 "/>
   <path class="fil0" d="M8347.01 11169.61l1120.82 0c406.67,0 697.62,-242.83 697.62,-589.73 0,-239.68 -152.09,-435.2 -416.59,-558.2 204.99,-110.38 324.01,-252.29 324.01,-479.35 0,-315.37 -267.81,-539.28 -648.03,-539.28l-1077.84 0 0 2166.56zm333.93 -1264.62l0 -621.27 661.26 0c228.13,0 390.14,132.45 390.14,312.21 0,179.76 -162.01,309.06 -390.14,309.06l-661.26 0zm0 983.94l0 -712.72 710.85 0c254.58,0 433.12,148.22 433.12,356.36 0,208.14 -178.54,356.36 -433.12,356.36l-710.85 0z"/>
   <path id="_1_12" class="fil0" d="M12106.43 9709.47c0,-413.13 -363.69,-706.42 -843.09,-706.42l-955.52 0 0 2166.56 333.93 0 0 -753.72 522.39 0 555.45 753.72 383.52 0 -578.59 -785.26c343.85,-85.15 581.9,-340.59 581.9,-674.88zm-1464.68 -409.98l575.29 0c327.32,0 548.84,154.53 548.84,409.98 0,255.44 -221.52,409.97 -548.84,409.97l-575.29 0 0 -819.95z"/>
   <path id="_2_13" class="fil0" d="M13303.5 11207.46c638.11,0 1173.72,-514.04 1173.72,-1122.7 0,-608.66 -535.62,-1119.55 -1173.72,-1119.55 -638.11,0 -1180.34,510.89 -1180.34,1119.55 0,608.66 542.23,1122.7 1180.34,1122.7zm0 -293.29c-452.96,0 -836.49,-378.44 -836.49,-829.41 0,-447.82 383.53,-826.26 836.49,-826.26 452.96,0 833.18,378.44 833.18,826.26 0,450.97 -380.22,829.41 -833.18,829.41z"/>
   <polygon id="_3" class="fil0" points="15135.37,11169.61 15469.31,11169.61 16074.36,9444.56 16672.79,11169.61 17006.72,11169.61 17753.94,9003.05 17383.64,9003.05 16824.88,10655.57 16256.2,9003.05 15885.9,9003.05 15317.22,10655.57 14758.46,9003.05 14388.16,9003.05 "/>
   <polygon id="_4" class="fil0" points="17869.86,11169.61 18203.79,11169.61 18203.79,9526.56 19509.77,11169.61 19843.7,11169.61 19843.7,9003.05 19509.77,9003.05 19509.77,10646.11 18203.79,9003.05 17869.86,9003.05 "/>
   <path class="fil0" d="M8347 13142.72l273.48 0 0 -617.28 509.06 0c392.62,0 690.48,-240.2 690.48,-578.54 0,-338.34 -297.85,-578.54 -690.48,-578.54l-782.54 0 0 1774.36zm273.48 -860.06l0 -671.52 471.15 0c268.07,0 449.49,126.56 449.49,335.76 0,209.2 -181.42,335.76 -449.49,335.76l-471.15 0z"/>
   <path id="_1_14" class="fil0" d="M11344.66 13142.72l303.26 0 -798.79 -1774.36 -303.27 0 -798.79 1774.36 303.27 0 162.47 -361.59 969.37 0 162.47 361.59zm-1026.24 -596.62l379.08 -841.98 379.09 841.98 -758.17 0z"/>
   <polygon id="_2_15" class="fil0" points="12040.71,13142.72 12314.2,13142.72 12314.2,11611.14 12926.15,11611.14 12926.15,11368.36 11431.46,11368.36 11431.46,11611.14 12040.71,11611.14 "/>
   <polygon id="_3_16" class="fil0" points="13015.67,13142.72 13289.15,13142.72 13289.15,11368.36 13015.67,11368.36 "/>
   <polygon id="_4_17" class="fil0" points="14840.85,11611.14 14840.85,11368.36 13473.44,11368.36 13473.44,13142.72 14840.85,13142.72 14840.85,12899.94 13749.63,12899.94 13749.63,12360.14 14735.25,12360.14 14735.25,12117.36 13749.63,12117.36 13749.63,11611.14 "/>
   <polygon id="_5" class="fil0" points="14992.65,13142.72 15266.13,13142.72 15266.13,11797.1 16335.69,13142.72 16609.18,13142.72 16609.18,11368.36 16335.69,11368.36 16335.69,12713.98 15266.13,11368.36 14992.65,11368.36 "/>
   <path id="_6" class="fil0" d="M17716.81 13173.71c265.36,0 509.06,-108.48 685.06,-278.94l-192.25 -175.63c-124.56,129.14 -300.56,214.37 -492.81,214.37 -370.96,0 -685.06,-309.93 -685.06,-679.27 0,-366.76 314.1,-676.69 685.06,-676.69 192.25,0 368.25,85.23 492.81,214.37l192.25 -175.63c-176.01,-173.05 -419.7,-278.94 -685.06,-278.94 -522.6,0 -966.67,418.41 -966.67,916.89 0,498.47 444.07,919.46 966.67,919.46z"/>
   <polygon id="_7" class="fil0" points="19820.9,11611.14 19820.9,11368.36 18453.48,11368.36 18453.48,13142.72 19820.9,13142.72 19820.9,12899.94 18729.67,12899.94 18729.67,12360.14 19715.3,12360.14 19715.3,12117.36 18729.67,12117.36 18729.67,11611.14 "/>
   <path class="fil0" d="M8738.85 14058.57c105.76,0 203.72,-43.53 274.96,-111.49l-48.98 -47.78c-57.88,58.4 -139.15,95.56 -225.98,95.56 -173.66,0 -319.49,-143.35 -319.49,-314.3 0,-169.89 145.83,-313.24 319.49,-313.24 86.83,0 168.1,37.17 225.98,94.5l48.98 -46.72c-71.25,-69.02 -169.21,-111.49 -274.96,-111.49 -211.51,0 -391.85,172.02 -391.85,376.95 0,204.93 180.34,378.01 391.85,378.01z"/>
   <path id="_1_18" class="fil0" d="M10447.63 14058.57c212.63,0 390.74,-173.07 390.74,-378.01 0,-204.93 -178.11,-376.95 -390.74,-376.95 -211.51,0 -391.85,172.02 -391.85,376.95 0,204.93 180.34,378.01 391.85,378.01zm0 -63.71c-173.66,0 -319.49,-143.35 -319.49,-314.3 0,-169.89 145.83,-313.24 319.49,-313.24 173.66,0 318.38,143.35 318.38,313.24 0,170.95 -144.72,314.3 -318.38,314.3z"/>
   <polygon id="_2_19" class="fil0" points="11969.39,14045.83 12040.63,14045.83 12040.63,13460.77 12332.3,13983.19 12623.96,13460.77 12623.96,14045.83 12695.2,14045.83 12695.2,13316.36 12623.96,13316.36 12332.3,13838.78 12040.63,13316.36 11969.39,13316.36 "/>
   <path id="_3_20" class="fil0" d="M13856.28 14045.83l71.24 0 0 -269.7 242.68 0c156.96,0 276.08,-94.5 276.08,-229.35 0,-134.85 -119.12,-230.42 -276.08,-230.42l-313.92 0 0 729.48zm71.24 -334.48l0 -330.23 230.43 0c128.02,0 217.08,63.71 217.08,165.65 0,100.87 -89.06,164.58 -217.08,164.58l-230.43 0z"/>
   <path id="_4_21" class="fil0" d="M16161.73 14045.83l77.93 0 -337.3 -729.48 -77.92 0 -337.3 729.48 77.93 0 79.04 -172.02 438.61 0 79.04 172.02zm-486.47 -237.85l188.13 -407.74 188.13 407.74 -376.26 0z"/>
   <polygon id="_5_22" class="fil0" points="17348.41,14045.83 17419.66,14045.83 17419.66,13426.79 17909.47,14045.83 17980.72,14045.83 17980.72,13316.36 17909.47,13316.36 17909.47,13935.41 17419.66,13316.36 17348.41,13316.36 "/>
   <polygon id="_6_23" class="fil0" points="19383.36,14045.83 19457.95,14045.83 19457.95,13748.52 19766.31,13316.36 19679.48,13316.36 19420.1,13681.63 19162.94,13316.36 19073.89,13316.36 19383.36,13748.52 "/>
   <path class="fil1" d="M6774.52 10628.99c279.3,352.47 448.25,788.02 448.25,1293.32 0,616.39 -246.72,1179.98 -693.97,1576.35 -435.93,386.35 -998.17,559.91 -1562.28,559.91l-1810.39 0 225.48 -579.68c21.16,-51.37 45.34,-107.13 65.89,-156.61l-8.43 -183.75c-23.17,-157.27 -46.32,-314.53 -69.48,-471.8 -59.15,-42.29 -123.98,-54.91 -195.58,-30.94l-104.39 311.48c-153.11,395.34 -115.7,265.08 -46.99,766.33 11.19,81.68 21.67,222.23 38.35,330.13 -113.73,-32.5 -242.78,4.58 -340.14,14.83l-74.39 0c-23.55,-4.01 -42.72,-13.29 -56.06,-30.79 -72.76,-95.36 -180.9,-22.8 -289.32,30.79l-84.33 0c52.83,-73.37 105.8,-102.74 109.81,-186.21 -147.25,-23.96 -321.63,107.42 -503.6,169.49l0 -76.9c20.29,-9.76 39.96,-18.86 57.27,-26.58 -27.33,-22.96 64.84,-39.87 -57.27,-26.6l0 -6303.69 2522.94 0c-2085.17,1864.09 -1788.48,1985.98 -1181.98,4954.79l78.84 -15.47c-239.15,-2468.5 447.13,-3157.84 1493.06,-4939.32l23.03 0c-1286.11,2332.6 -1490.21,2358.38 -1466.28,4949.91 30.99,3.93 57.7,15.65 84.66,22.85 104.98,-562.95 932.1,-1044.29 1216.52,-1720.05 -346.13,438.59 -745.17,791.43 -860.92,809.35 610.87,-897.83 1358.19,-1162.11 1531.1,-2520.61 -168.42,351.91 -231.94,683.29 -955.7,1133.59 71.85,-73.74 152.87,-148.9 229.56,-224.76 254.71,-251.98 422.54,-488.89 556.27,-820.14 142.91,-354 119.75,-1090.81 137.15,-1542.06 -199.69,156.76 -259.28,144.29 -434.82,265.07 -45,30.97 -91.94,71.09 -126.48,90.9 64.33,-51.85 30.31,-84.37 329.76,-286.02 71.68,-48.27 124.7,-95.23 163,-142.19 436.7,48.78 858.42,212.1 1200.08,511.72 427.91,375.25 665.94,911.15 665.94,1497.39 0,376.3 -87.19,701.85 -245.52,980.91 -1005.14,363.47 -1793.19,527.24 -2033.36,186.94 -33.5,705.29 1485.93,75.83 2024.72,-171.89zm-3711.28 3428.79l0.13 0.8 -2.3 0c0.72,-0.26 1.48,-0.53 2.17,-0.8zm-550.44 0.8l-105.02 0c42.16,-8.43 79.91,-10.96 105.02,0zm-367.52 0l-211.38 0c133.43,-53.08 268.52,-122.73 311.29,-135.56 -52.58,61.76 -84.22,105.41 -99.91,135.56zm975.78 0l-26.93 0c20.31,-188.83 57.28,-596.77 37.99,-636.28 -35.81,-73.37 -59.3,-172.75 44.96,-191.15 105.5,-18.61 108.3,111.01 55.33,170.48 -63.81,71.66 -41.69,28.11 -64.22,222.97 -14.61,126.34 -40.81,295.73 -47.13,433.98z"/>
  </g>
 </g>
</svg>
